<?xml version="1.0" encoding="UTF-8" standalone="no"?>
<svg
   xmlns:dc="http://purl.org/dc/elements/1.1/"
   xmlns:cc="http://creativecommons.org/ns#"
   xmlns:rdf="http://www.w3.org/1999/02/22-rdf-syntax-ns#"
   xmlns:svg="http://www.w3.org/2000/svg"
   xmlns="http://www.w3.org/2000/svg"
   xmlns:sodipodi="http://sodipodi.sourceforge.net/DTD/sodipodi-0.dtd"
   xmlns:inkscape="http://www.inkscape.org/namespaces/inkscape"
   version="1.0"
   width="256"
   height="128"
   viewBox="0 0 179.83816 102.39999"
   preserveAspectRatio="xMidYMid meet"
   id="svg2"
   inkscape:version="0.48.2 r9819"
   sodipodi:docname="dotJEMLogo.svg">
  <sodipodi:namedview
     pagecolor="#ffffff"
     bordercolor="#666666"
     borderopacity="1"
     objecttolerance="10"
     gridtolerance="10"
     guidetolerance="10"
     inkscape:pageopacity="0"
     inkscape:pageshadow="2"
     inkscape:window-width="1920"
     inkscape:window-height="1141"
     id="namedview10"
     showgrid="false"
     showguides="true"
     inkscape:guide-bbox="true"
     inkscape:zoom="0.17002539"
     inkscape:cx="2071.056"
     inkscape:cy="1675.485"
     inkscape:window-x="-8"
     inkscape:window-y="-8"
     inkscape:window-maximized="1"
     inkscape:current-layer="svg2"
     fit-margin-top="0"
     fit-margin-left="0"
     fit-margin-right="0"
     fit-margin-bottom="0">
  </sodipodi:namedview>
  <metadata id="metadata4">

<rdf:RDF>
  <cc:Work
     rdf:about="">
    <dc:format>image/svg+xml</dc:format>
    <dc:type
       rdf:resource="http://purl.org/dc/dcmitype/StillImage" />
    <dc:title></dc:title>
  </cc:Work>
</rdf:RDF>
</metadata>
  <g
     id="g4053"
     transform="matrix(0.06120839,0,0,0.06120839,-1.157218,-0.57887089)">
    <g
       style="fill:#6b6b6b;fill-opacity:1;stroke:none"
       id="g6"
       transform="matrix(0.06956179,0,0,-0.06956179,2.1214027,1873.5414)">
      <path
         style="fill:#6b6b6b;fill-opacity:1"
         inkscape:connector-curvature="0"
         id="path8"
         d="m 14935,14763 c -3,-15 -39,-111 -80,-213 -457,-1162 -1217,-2349 -2205,-3445 -289,-321 -784,-808 -1135,-1116 C 9499,8216 6890,6904 4397,6409 3498,6231 2794,6160 1924,6160 c -594,0 -1080,37 -1532,115 -240,42 -210,32 211,-70 1007,-245 2124,-475 3102,-640 2826,-476 4933,-518 6151,-125 543,176 913,430 1366,940 715,803 1469,2160 2222,4000 424,1034 858,2261 1240,3500 120,391 268,901 263,906 -3,3 -8,-8 -12,-23 z" />
    </g>
    <g
       style="fill:#d26c00;fill-opacity:1;stroke:none"
       transform="matrix(0.06956179,0,0,-0.06956179,16.467642,1886.5216)"
       id="g3077">
      <path
         style="fill:#d26c00;fill-opacity:1"
         inkscape:connector-curvature="0"
         d="M 14060,14969 C 11659,14889 9481,14646 7876,14279 6504,13966 5547,13572 4957,13079 4212,12457 3645,11007 3265,8755 3033,7381 2881,5795 2810,4010 c -13,-330 -32,-1072 -27,-1076 2,-2 9,60 15,137 115,1344 662,3005 1458,4434 639,1146 1393,2160 2356,3165 2089,2181 4618,3649 7178,4164 273,55 594,105 805,125 61,6 124,13 140,15 59,6 -434,3 -675,-5 z"
         id="path3079" />
    </g>
    <g
       style="fill:#d26c00;fill-opacity:1;stroke:none"
       transform="matrix(0.06956179,0,0,-0.06956179,-15.815999,1887.7859)"
       id="g3117">
      <path
         style="fill:#d26c00;fill-opacity:1"
         inkscape:connector-curvature="0"
         d="m 27202,26975 c -4,-84 -41,-400 -68,-575 -36,-238 -115,-627 -178,-880 -649,-2594 -2236,-5096 -4526,-7136 -1486,-1324 -3158,-2313 -4885,-2889 -773,-258 -1530,-424 -2250,-494 l -90,-8 150,-2 c 256,-2 1138,31 1735,64 3600,204 6269,756 7566,1562 504,314 820,676 1128,1291 748,1493 1244,4321 1396,7952 16,382 32,1020 28,1095 -3,57 -4,61 -6,20 z"
         id="path3119" />
    </g>
    <g
       style="fill:#6b6b6b;fill-opacity:1;stroke:none"
       transform="matrix(0.06956179,0,0,-0.06956179,-4.6603277,1901.4384)"
       id="g3143">
      <path
         style="fill:#6b6b6b;fill-opacity:1"
         inkscape:connector-curvature="0"
         d="m 21930,24794 c -1125,-45 -1867,-210 -2394,-531 -1236,-753 -2609,-3276 -3911,-7188 -190,-569 -549,-1736 -580,-1882 -4,-16 25,53 63,152 333,870 846,1771 1501,2635 1066,1408 2483,2660 4131,3653 1869,1126 3824,1831 5770,2081 1088,141 2192,134 3104,-19 82,-14 151,-24 152,-22 9,8 -1009,246 -1541,361 -1935,415 -3596,658 -5065,741 -250,14 -1044,27 -1230,19 z"
         id="path3145" />
    </g>
    <text
       sodipodi:linespacing="125%"
       id="text3923"
       y="784.27594"
       x="82.222359"
       style="font-size:612.14379883px;font-style:normal;font-variant:normal;font-weight:bold;font-stretch:normal;text-align:start;line-height:125%;letter-spacing:0px;word-spacing:0px;writing-mode:lr-tb;text-anchor:start;fill:#d26c00;fill-opacity:1;stroke:none;font-family:Myriad Pro;-inkscape-font-specification:Myriad Pro Bold"
       xml:space="preserve"><tspan
         y="784.27594"
         x="82.222359"
         id="tspan3925"
         sodipodi:role="line">dot</tspan></text>
    <text
       sodipodi:linespacing="125%"
       id="text3927"
       y="782.60657"
       x="1892.9159"
       style="font-size:222.59773254px;font-style:normal;font-weight:normal;line-height:125%;letter-spacing:0px;word-spacing:0px;fill:#d26c00;fill-opacity:1;stroke:none;font-family:Sans"
       xml:space="preserve"><tspan
         style="font-size:612.14379883px;font-style:normal;font-variant:normal;font-weight:bold;font-stretch:normal;text-align:start;line-height:125%;writing-mode:lr-tb;text-anchor:start;fill:#d26c00;fill-opacity:1;font-family:Myriad Pro;-inkscape-font-specification:Myriad Pro Bold"
         y="782.60657"
         x="1892.9159"
         id="tspan3929"
         sodipodi:role="line">JEM</tspan></text>
  </g>
</svg>
